<svg xmlns="http://www.w3.org/2000/svg" version="1.1" viewBox="-5.0 -10.0 110.0 135.0">
 <path d="m87.5 12.5c-2.0742-2.0508-5.1797-2.6602-7.875-1.543l-64.668 25c-3.4102 1.3086-5.5742 4.6875-5.332 8.3359 0.375 2.7891 2.4297 5.0586 5.168 5.707l25 9.332s0.5 0.58203 0.625 0.625l9.25 25c0.74219 2.9375 3.3086 5.0469 6.332 5.2109h0.54297c3.3867-0.0625 6.4023-2.1719 7.625-5.3359l25-64.668v0.003907c0.99219-2.6641 0.34375-5.6602-1.668-7.668zm-4.168 5.5-25 64.668c-0.28516 0.80859-1.0547 1.3438-1.9141 1.332-0.58203 0-0.66797-0.375-0.70703-0.58203h-0.003907c0.019531-0.125 0.019531-0.25391 0-0.375l-9.207-24.711c0.015625-0.09375 0.015625-0.19531 0-0.28906l13.875-13.875c0.62109-0.57812 0.98047-1.3828 0.99219-2.2344 0.015624-0.84766-0.3125-1.6641-0.91406-2.2617-0.59766-0.60156-1.4141-0.92969-2.2617-0.91406-0.85156 0.011719-1.6562 0.37109-2.2344 0.99219l-13.875 13.875-25.414-9.457c-0.35156-0.042969-0.60938-0.35547-0.58594-0.71094 0.015625-0.79297 0.50781-1.5039 1.25-1.7891l64.668-25h0.58203c0.23828-0.12109 0.51562-0.12109 0.75 0 0.28125 0.39844 0.28125 0.92969 0 1.332z"/>
<text x="0.0" y="117.5" font-size="5.0" font-weight="bold" font-family="Arbeit Regular, Helvetica, Arial-Unicode, Arial, Sans-serif" fill="#000000">Created by Dwi ridwanto</text><text x="0.0" y="122.5" font-size="5.0" font-weight="bold" font-family="Arbeit Regular, Helvetica, Arial-Unicode, Arial, Sans-serif" fill="#000000">from Noun Project</text></svg>