<svg width="369" height="366" viewBox="0 0 369 366" fill="none" xmlns="http://www.w3.org/2000/svg">
<path d="M56.8281 146.806L112.303 169.131L62.9168 203.634L0 181.309L56.8281 146.806Z" fill="#B497FF"/>
<path d="M126.51 102.155L187.397 121.774L135.982 156.954L69.6821 138.011L126.51 102.155Z" fill="#B497FF"/>
<path d="M206.34 52.0924L275.345 73.0647L222.577 110.274L148.835 87.2717L206.34 52.0924Z" fill="#B497FF"/>
<path d="M292.935 0L368.03 20.2957L319.996 52.769L238.813 33.1497L292.935 0Z" fill="#B497FF"/>
<path d="M62.9165 203.634L89.9775 184.691V253.697L66.9757 269.933L62.9165 203.634Z" fill="#6B31FF"/>
<path d="M135.981 156.954L163.042 138.688L173.19 281.434L149.512 299.701L135.981 156.954Z" fill="#6B31FF"/>
<path d="M222.577 110.274L249.638 91.3308L265.874 300.377L234.078 331.497L222.577 110.274Z" fill="#6B31FF"/>
<path d="M319.996 52.7689L368.03 20.2957V327.603L326.762 366L319.996 52.7689Z" fill="#6B31FF"/>
<path d="M69.6821 138.011L135.982 156.954L149.512 299.701L83.8892 276.022L69.6821 138.011Z" fill="#7D49FF"/>
<path d="M0 181.309L62.9168 203.634L66.976 269.933L4.05915 246.932L0 181.309Z" fill="#7D49FF"/>
<path d="M148.835 87.2718L222.577 110.274L234.077 331.497L163.719 305.789L148.835 87.2718Z" fill="#7D49FF"/>
<path d="M238.813 33.1497L319.996 52.7689L326.762 366L250.991 336.233L238.813 33.1497Z" fill="#7D49FF"/>
</svg>
