<svg width="28" height="28" viewBox="0 0 28 28" fill="none" xmlns="http://www.w3.org/2000/svg">
<path d="M22.4817 6.21841C20.93 5.49508 19.25 4.97008 17.5 4.66675C17.4692 4.66719 17.4399 4.67977 17.4183 4.70175C17.2083 5.08675 16.9633 5.58841 16.8 5.97341C14.9438 5.69359 13.0562 5.69359 11.2 5.97341C11.0367 5.57675 10.7917 5.08675 10.57 4.70175C10.5583 4.67841 10.5233 4.66675 10.4883 4.66675C8.73833 4.97008 7.06999 5.49508 5.50666 6.21841C5.49499 6.21841 5.48333 6.23008 5.47166 6.24175C2.29833 10.9901 1.42333 15.6101 1.85499 20.1834C1.85499 20.2067 1.86666 20.2301 1.88999 20.2417C3.98999 21.7817 6.00833 22.7151 8.00333 23.3334C8.03833 23.3451 8.07333 23.3334 8.08499 23.3101C8.55166 22.6684 8.97166 21.9917 9.33333 21.2801C9.35666 21.2334 9.33333 21.1867 9.28666 21.1751C8.62166 20.9184 7.99166 20.6151 7.37333 20.2651C7.32666 20.2417 7.32666 20.1717 7.36166 20.1367C7.48999 20.0434 7.61833 19.9384 7.74666 19.8451C7.76999 19.8217 7.805 19.8217 7.82833 19.8334C11.8417 21.6651 16.17 21.6651 20.1367 19.8334C20.16 19.8217 20.195 19.8217 20.2183 19.8451C20.3467 19.9501 20.475 20.0434 20.6033 20.1484C20.65 20.1834 20.65 20.2534 20.5917 20.2767C19.985 20.6384 19.3433 20.9301 18.6783 21.1867C18.6317 21.1984 18.62 21.2567 18.6317 21.2917C19.005 22.0034 19.425 22.6801 19.88 23.3217C19.915 23.3334 19.95 23.3451 19.985 23.3334C21.9917 22.7151 24.01 21.7817 26.11 20.2417C26.1333 20.2301 26.145 20.2067 26.145 20.1834C26.6583 14.8984 25.2933 10.3134 22.5283 6.24175C22.5167 6.23008 22.505 6.21841 22.4817 6.21841ZM9.94 17.3951C8.73833 17.3951 7.73499 16.2867 7.73499 14.9217C7.73499 13.5567 8.715 12.4484 9.94 12.4484C11.1767 12.4484 12.1567 13.5684 12.145 14.9217C12.145 16.2867 11.165 17.3951 9.94 17.3951ZM18.0717 17.3951C16.87 17.3951 15.8667 16.2867 15.8667 14.9217C15.8667 13.5567 16.8467 12.4484 18.0717 12.4484C19.3083 12.4484 20.2883 13.5684 20.2767 14.9217C20.2767 16.2867 19.3083 17.3951 18.0717 17.3951Z" fill="#F8F8F8"/>
</svg>
