<svg width="28" height="28" viewBox="0 0 28 28" fill="none" xmlns="http://www.w3.org/2000/svg">
<path d="M22.4817 6.21841C20.9301 5.49508 19.2501 4.97008 17.5001 4.66675C17.4693 4.66719 17.4399 4.67977 17.4184 4.70175C17.2084 5.08675 16.9634 5.58841 16.8001 5.97341C14.9439 5.69359 13.0562 5.69359 11.2001 5.97341C11.0367 5.57675 10.7917 5.08675 10.5701 4.70175C10.5584 4.67841 10.5234 4.66675 10.4884 4.66675C8.73839 4.97008 7.07006 5.49508 5.50672 6.21841C5.49506 6.21841 5.48339 6.23008 5.47172 6.24175C2.29839 10.9901 1.42339 15.6101 1.85506 20.1834C1.85506 20.2067 1.86672 20.2301 1.89006 20.2417C3.99006 21.7817 6.00839 22.7151 8.00339 23.3334C8.03839 23.3451 8.07339 23.3334 8.08506 23.3101C8.55172 22.6684 8.97172 21.9917 9.33339 21.2801C9.35672 21.2334 9.33339 21.1867 9.28672 21.1751C8.62172 20.9184 7.99172 20.6151 7.37339 20.2651C7.32672 20.2417 7.32672 20.1717 7.36172 20.1367C7.49006 20.0434 7.61839 19.9384 7.74672 19.8451C7.77006 19.8217 7.80506 19.8217 7.82839 19.8334C11.8417 21.6651 16.1701 21.6651 20.1367 19.8334C20.1601 19.8217 20.1951 19.8217 20.2184 19.8451C20.3467 19.9501 20.4751 20.0434 20.6034 20.1484C20.6501 20.1834 20.6501 20.2534 20.5917 20.2767C19.9851 20.6384 19.3434 20.9301 18.6784 21.1867C18.6317 21.1984 18.6201 21.2567 18.6317 21.2917C19.0051 22.0034 19.4251 22.6801 19.8801 23.3217C19.9151 23.3334 19.9501 23.3451 19.9851 23.3334C21.9917 22.7151 24.0101 21.7817 26.1101 20.2417C26.1334 20.2301 26.1451 20.2067 26.1451 20.1834C26.6584 14.8984 25.2934 10.3134 22.5284 6.24175C22.5167 6.23008 22.5051 6.21841 22.4817 6.21841ZM9.94006 17.3951C8.73839 17.3951 7.73506 16.2867 7.73506 14.9217C7.73506 13.5567 8.71506 12.4484 9.94006 12.4484C11.1767 12.4484 12.1567 13.5684 12.1451 14.9217C12.1451 16.2867 11.1651 17.3951 9.94006 17.3951ZM18.0717 17.3951C16.8701 17.3951 15.8667 16.2867 15.8667 14.9217C15.8667 13.5567 16.8467 12.4484 18.0717 12.4484C19.3084 12.4484 20.2884 13.5684 20.2767 14.9217C20.2767 16.2867 19.3084 17.3951 18.0717 17.3951Z" fill="#F8F8F8"/>
</svg>
