<svg width="37" height="37" viewBox="0 0 37 37" fill="none" xmlns="http://www.w3.org/2000/svg">
<path d="M12.025 3.08325H24.975C29.9084 3.08325 33.9167 7.09159 33.9167 12.0249V24.9749C33.9167 27.3464 32.9746 29.6207 31.2978 31.2976C29.6209 32.9745 27.3465 33.9166 24.975 33.9166H12.025C7.09171 33.9166 3.08337 29.9083 3.08337 24.9749V12.0249C3.08337 9.65344 4.02544 7.37909 5.70233 5.70221C7.37922 4.02532 9.65356 3.08325 12.025 3.08325ZM11.7167 6.16659C10.2448 6.16659 8.83309 6.75132 7.79226 7.79214C6.75144 8.83297 6.16671 10.2446 6.16671 11.7166V25.2833C6.16671 28.3512 8.64879 30.8333 11.7167 30.8333H25.2834C26.7553 30.8333 28.167 30.2485 29.2078 29.2077C30.2486 28.1669 30.8334 26.7552 30.8334 25.2833V11.7166C30.8334 8.64867 28.3513 6.16659 25.2834 6.16659H11.7167ZM26.5938 8.47909C27.1049 8.47909 27.595 8.68212 27.9564 9.04352C28.3178 9.40491 28.5209 9.89507 28.5209 10.4062C28.5209 10.9173 28.3178 11.4074 27.9564 11.7688C27.595 12.1302 27.1049 12.3333 26.5938 12.3333C26.0827 12.3333 25.5925 12.1302 25.2311 11.7688C24.8697 11.4074 24.6667 10.9173 24.6667 10.4062C24.6667 9.89507 24.8697 9.40491 25.2311 9.04352C25.5925 8.68212 26.0827 8.47909 26.5938 8.47909ZM18.5 10.7916C20.5444 10.7916 22.5051 11.6037 23.9507 13.0493C25.3962 14.4949 26.2084 16.4555 26.2084 18.4999C26.2084 20.5443 25.3962 22.5049 23.9507 23.9505C22.5051 25.3961 20.5444 26.2083 18.5 26.2083C16.4557 26.2083 14.495 25.3961 13.0494 23.9505C11.6038 22.5049 10.7917 20.5443 10.7917 18.4999C10.7917 16.4555 11.6038 14.4949 13.0494 13.0493C14.495 11.6037 16.4557 10.7916 18.5 10.7916ZM18.5 13.8749C17.2734 13.8749 16.097 14.3622 15.2297 15.2295C14.3623 16.0969 13.875 17.2733 13.875 18.4999C13.875 19.7265 14.3623 20.9029 15.2297 21.7703C16.097 22.6376 17.2734 23.1249 18.5 23.1249C19.7267 23.1249 20.9031 22.6376 21.7704 21.7703C22.6378 20.9029 23.125 19.7265 23.125 18.4999C23.125 17.2733 22.6378 16.0969 21.7704 15.2295C20.9031 14.3622 19.7267 13.8749 18.5 13.8749Z" fill="white"/>
</svg>
