<svg width="36" height="36" viewBox="0 0 36 36" fill="none" xmlns="http://www.w3.org/2000/svg">
<path d="M28.7617 2.73706H7.23706C4.76206 2.73706 2.73706 4.76206 2.73706 7.23706V28.7639C2.73706 31.2389 4.76206 33.2639 7.23706 33.2639H28.7639C31.2389 33.2639 33.2639 31.2389 33.2639 28.7639V7.23706C33.2617 4.76206 31.2389 2.73706 28.7617 2.73706ZM28.4726 19.0304H24.8501V32.1367H19.4298V19.0304H16.7186V14.5124H19.4298V11.8012C19.4298 8.11568 20.9598 5.92306 25.3136 5.92306H28.9327V10.4399H26.6692C24.9772 10.4399 24.8647 11.0733 24.8647 12.2512L24.8501 14.5124H28.9507L28.4726 19.0304Z" fill="white"/>
</svg>
